{
	"asset":{
		"generator":"Khronos glTF Blender I/O v3.6.27",
		"version":"2.0"
	},
	"scene":0,
	"scenes":[
		{
			"name":"Scene",
			"nodes":[
				0,
				1,
				2,
				3,
				4,
				5,
				6,
				7,
				8,
				9,
				10,
				11,
				12,
				13
			]
		}
	],
	"nodes":[
		{
			"mesh":0,
			"name":"Land.001"
		},
		{
			"mesh":1,
			"name":"Cube",
			"rotation":[
				0,
				0.7071068286895752,
				0,
				0.7071068286895752
			],
			"scale":[
				0.38368791341781616,
				0.38368791341781616,
				0.38368791341781616
			],
			"translation":[
				-0.0046859681606292725,
				1.383687973022461,
				-0.012372754514217377
			]
		},
		{
			"mesh":2,
			"name":"Cube.001",
			"rotation":[
				0,
				0.7071068286895752,
				0,
				0.7071068286895752
			],
			"scale":[
				0.16467341780662537,
				0.16467341780662537,
				0.16467341780662537
			],
			"translation":[
				0.6802492141723633,
				1.1646735668182373,
				0.5359885096549988
			]
		},
		{
			"mesh":3,
			"name":"Cube.002",
			"rotation":[
				0,
				0.7071068286895752,
				0,
				0.7071068286895752
			],
			"scale":[
				0.16467341780662537,
				0.16467341780662537,
				0.16467341780662537
			],
			"translation":[
				0.6802490949630737,
				1.1646735668182373,
				-0.5607340931892395
			]
		},
		{
			"mesh":4,
			"name":"Cube.004",
			"rotation":[
				0,
				0.7071068286895752,
				0,
				0.7071068286895752
			],
			"scale":[
				0.16467341780662537,
				0.16467341780662537,
				0.16467341780662537
			],
			"translation":[
				-0.689620852470398,
				1.1646735668182373,
				-0.56073397397995
			]
		},
		{
			"mesh":5,
			"name":"Cube.005",
			"rotation":[
				0,
				0.7071068286895752,
				0,
				0.7071068286895752
			],
			"scale":[
				0.16467341780662537,
				0.16467341780662537,
				0.16467341780662537
			],
			"translation":[
				-0.689620852470398,
				1.1646735668182373,
				0.5359885692596436
			]
		},
		{
			"mesh":6,
			"name":"Cone.004",
			"rotation":[
				0,
				0.7071068286895752,
				0,
				0.7071068286895752
			],
			"scale":[
				0.25018763542175293,
				0.25018763542175293,
				0.25018763542175293
			],
			"translation":[
				0.6831897497177124,
				2.1830873489379883,
				0.5401499271392822
			]
		},
		{
			"mesh":7,
			"name":"Cone.007",
			"rotation":[
				0,
				0.7071068286895752,
				0,
				0.7071068286895752
			],
			"scale":[
				0.29817354679107666,
				0.29817354679107666,
				0.29817354679107666
			],
			"translation":[
				-0.008024781942367554,
				2.874382495880127,
				-0.015992365777492523
			]
		},
		{
			"mesh":8,
			"name":"Plane.001",
			"rotation":[
				0.5,
				0.5,
				0.5000000596046448,
				0.5
			],
			"scale":[
				-0.7422440052032471,
				-0.7422440052032471,
				-0.016132373362779617
			],
			"translation":[
				-0.0046859681606292725,
				4.026670932769775,
				-0.012372754514217377
			]
		},
		{
			"mesh":9,
			"name":"Cone.003",
			"rotation":[
				0,
				0.7071068286895752,
				0,
				0.7071068286895752
			],
			"scale":[
				0.25018763542175293,
				0.25018763542175293,
				0.25018763542175293
			],
			"translation":[
				-0.6840997934341431,
				2.1830873489379883,
				0.540149986743927
			]
		},
		{
			"mesh":10,
			"name":"Cone.005",
			"rotation":[
				0,
				0.7071068286895752,
				0,
				0.7071068286895752
			],
			"scale":[
				0.25018763542175293,
				0.25018763542175293,
				0.25018763542175293
			],
			"translation":[
				0.6831897497177124,
				2.1830873489379883,
				-0.5591508746147156
			]
		},
		{
			"mesh":11,
			"name":"Cone.006",
			"rotation":[
				0,
				0.7071068286895752,
				0,
				0.7071068286895752
			],
			"scale":[
				0.25018763542175293,
				0.25018763542175293,
				0.25018763542175293
			],
			"translation":[
				-0.6840997934341431,
				2.1830873489379883,
				-0.5591508150100708
			]
		},
		{
			"mesh":12,
			"name":"Plane.002",
			"rotation":[
				0,
				0.7071068286895752,
				0,
				0.7071067690849304
			],
			"scale":[
				0.04426448047161102,
				0.04426448047161102,
				0.04426448047161102
			],
			"translation":[
				-0.004685938358306885,
				1,
				0.41557958722114563
			]
		},
		{
			"mesh":13,
			"name":"Cube.009",
			"scale":[
				0.11283767223358154,
				0.11283767223358154,
				0.11283767223358154
			],
			"translation":[
				0,
				2.1470584869384766,
				0.32071566581726074
			]
		}
	],
	"materials":[
		{
			"doubleSided":true,
			"name":"Material.001",
			"pbrMetallicRoughness":{
				"baseColorFactor":[
					0,
					0.7991027235984802,
					0.004024943336844444,
					1
				],
				"metallicFactor":0,
				"roughnessFactor":0.5
			}
		},
		{
			"doubleSided":true,
			"name":"Material.010",
			"pbrMetallicRoughness":{
				"baseColorFactor":[
					0.7230421304702759,
					0.7230421304702759,
					0.7230421304702759,
					1
				],
				"metallicFactor":0,
				"roughnessFactor":0.5
			}
		},
		{
			"doubleSided":true,
			"name":"Material.008",
			"pbrMetallicRoughness":{
				"baseColorFactor":[
					0.12602509558200836,
					0.34981662034988403,
					0.8000000715255737,
					1
				],
				"metallicFactor":0,
				"roughnessFactor":0.5
			}
		},
		{
			"doubleSided":true,
			"name":"Material.009",
			"pbrMetallicRoughness":{
				"baseColorFactor":[
					0.8000000715255737,
					0.08020756393671036,
					0.09279319643974304,
					1
				],
				"metallicFactor":0,
				"roughnessFactor":0.5
			}
		},
		{
			"doubleSided":true,
			"name":"Material.004",
			"pbrMetallicRoughness":{
				"baseColorFactor":[
					0.30319780111312866,
					0.09502791613340378,
					0.02278321050107479,
					1
				],
				"metallicFactor":0,
				"roughnessFactor":0.5
			}
		},
		{
			"doubleSided":true,
			"name":"Material.006",
			"pbrMetallicRoughness":{
				"baseColorFactor":[
					0.5488515496253967,
					0.5488515496253967,
					0.5488515496253967,
					1
				],
				"metallicFactor":0,
				"roughnessFactor":0.5
			}
		},
		{
			"doubleSided":true,
			"name":"Material.011",
			"pbrMetallicRoughness":{
				"baseColorFactor":[
					0.09083760529756546,
					0.09083760529756546,
					0.09083760529756546,
					1
				],
				"metallicFactor":0,
				"roughnessFactor":0.5
			}
		}
	],
	"meshes":[
		{
			"name":"Cube.001",
			"primitives":[
				{
					"attributes":{
						"POSITION":0,
						"NORMAL":1,
						"TEXCOORD_0":2
					},
					"indices":3,
					"material":0
				}
			]
		},
		{
			"name":"Cube",
			"primitives":[
				{
					"attributes":{
						"POSITION":4,
						"NORMAL":5,
						"TEXCOORD_0":6
					},
					"indices":7,
					"material":1
				}
			]
		},
		{
			"name":"Cube.004",
			"primitives":[
				{
					"attributes":{
						"POSITION":8,
						"NORMAL":9,
						"TEXCOORD_0":10
					},
					"indices":11,
					"material":1
				}
			]
		},
		{
			"name":"Cube.005",
			"primitives":[
				{
					"attributes":{
						"POSITION":12,
						"NORMAL":13,
						"TEXCOORD_0":14
					},
					"indices":11,
					"material":1
				}
			]
		},
		{
			"name":"Cube.008",
			"primitives":[
				{
					"attributes":{
						"POSITION":15,
						"NORMAL":16,
						"TEXCOORD_0":17
					},
					"indices":11,
					"material":1
				}
			]
		},
		{
			"name":"Cube.009",
			"primitives":[
				{
					"attributes":{
						"POSITION":18,
						"NORMAL":19,
						"TEXCOORD_0":20
					},
					"indices":11,
					"material":1
				}
			]
		},
		{
			"name":"Cone.003",
			"primitives":[
				{
					"attributes":{
						"POSITION":21,
						"NORMAL":22,
						"TEXCOORD_0":23
					},
					"indices":24,
					"material":2
				}
			]
		},
		{
			"name":"Cone.007",
			"primitives":[
				{
					"attributes":{
						"POSITION":25,
						"NORMAL":26,
						"TEXCOORD_0":27
					},
					"indices":24,
					"material":2
				}
			]
		},
		{
			"name":"Plane.001",
			"primitives":[
				{
					"attributes":{
						"POSITION":28,
						"NORMAL":29,
						"TEXCOORD_0":30
					},
					"indices":31,
					"material":3
				},
				{
					"attributes":{
						"POSITION":32,
						"NORMAL":33,
						"TEXCOORD_0":34
					},
					"indices":35,
					"material":4
				}
			]
		},
		{
			"name":"Cone.008",
			"primitives":[
				{
					"attributes":{
						"POSITION":36,
						"NORMAL":37,
						"TEXCOORD_0":38
					},
					"indices":24,
					"material":2
				}
			]
		},
		{
			"name":"Cone.009",
			"primitives":[
				{
					"attributes":{
						"POSITION":39,
						"NORMAL":40,
						"TEXCOORD_0":41
					},
					"indices":24,
					"material":2
				}
			]
		},
		{
			"name":"Cone.010",
			"primitives":[
				{
					"attributes":{
						"POSITION":42,
						"NORMAL":43,
						"TEXCOORD_0":44
					},
					"indices":24,
					"material":2
				}
			]
		},
		{
			"name":"Plane.002",
			"primitives":[
				{
					"attributes":{
						"POSITION":45,
						"NORMAL":46,
						"TEXCOORD_0":47
					},
					"indices":48,
					"material":5
				},
				{
					"attributes":{
						"POSITION":49,
						"NORMAL":50,
						"TEXCOORD_0":51
					},
					"indices":52,
					"material":4
				}
			]
		},
		{
			"name":"Cube.014",
			"primitives":[
				{
					"attributes":{
						"POSITION":53,
						"NORMAL":54,
						"TEXCOORD_0":55
					},
					"indices":56,
					"material":5
				},
				{
					"attributes":{
						"POSITION":57,
						"NORMAL":58,
						"TEXCOORD_0":59
					},
					"indices":60,
					"material":6
				}
			]
		}
	],
	"accessors":[
		{
			"bufferView":0,
			"componentType":5126,
			"count":24,
			"max":[
				1,
				1,
				1
			],
			"min":[
				-1,
				-1,
				-1
			],
			"type":"VEC3"
		},
		{
			"bufferView":1,
			"componentType":5126,
			"count":24,
			"type":"VEC3"
		},
		{
			"bufferView":2,
			"componentType":5126,
			"count":24,
			"type":"VEC2"
		},
		{
			"bufferView":3,
			"componentType":5123,
			"count":36,
			"type":"SCALAR"
		},
		{
			"bufferView":4,
			"componentType":5126,
			"count":44,
			"max":[
				1,
				3.1080503463745117,
				1.355949878692627
			],
			"min":[
				-1,
				-1,
				-1.355949878692627
			],
			"type":"VEC3"
		},
		{
			"bufferView":5,
			"componentType":5126,
			"count":44,
			"type":"VEC3"
		},
		{
			"bufferView":6,
			"componentType":5126,
			"count":44,
			"type":"VEC2"
		},
		{
			"bufferView":7,
			"componentType":5123,
			"count":78,
			"type":"SCALAR"
		},
		{
			"bufferView":8,
			"componentType":5126,
			"count":20,
			"max":[
				1,
				4.6651506423950195,
				1
			],
			"min":[
				-1,
				-1,
				-1
			],
			"type":"VEC3"
		},
		{
			"bufferView":9,
			"componentType":5126,
			"count":20,
			"type":"VEC3"
		},
		{
			"bufferView":10,
			"componentType":5126,
			"count":20,
			"type":"VEC2"
		},
		{
			"bufferView":11,
			"componentType":5123,
			"count":30,
			"type":"SCALAR"
		},
		{
			"bufferView":12,
			"componentType":5126,
			"count":20,
			"max":[
				1,
				4.6651506423950195,
				1
			],
			"min":[
				-1,
				-1,
				-1
			],
			"type":"VEC3"
		},
		{
			"bufferView":13,
			"componentType":5126,
			"count":20,
			"type":"VEC3"
		},
		{
			"bufferView":14,
			"componentType":5126,
			"count":20,
			"type":"VEC2"
		},
		{
			"bufferView":15,
			"componentType":5126,
			"count":20,
			"max":[
				1,
				4.6651506423950195,
				1
			],
			"min":[
				-1,
				-1,
				-1
			],
			"type":"VEC3"
		},
		{
			"bufferView":16,
			"componentType":5126,
			"count":20,
			"type":"VEC3"
		},
		{
			"bufferView":17,
			"componentType":5126,
			"count":20,
			"type":"VEC2"
		},
		{
			"bufferView":18,
			"componentType":5126,
			"count":20,
			"max":[
				1,
				4.6651506423950195,
				1
			],
			"min":[
				-1,
				-1,
				-1
			],
			"type":"VEC3"
		},
		{
			"bufferView":19,
			"componentType":5126,
			"count":20,
			"type":"VEC3"
		},
		{
			"bufferView":20,
			"componentType":5126,
			"count":20,
			"type":"VEC2"
		},
		{
			"bufferView":21,
			"componentType":5126,
			"count":32,
			"max":[
				1.291253924369812,
				1,
				1.291253924369812
			],
			"min":[
				-1.291253924369812,
				-0.9999998807907104,
				-1.291253924369812
			],
			"type":"VEC3"
		},
		{
			"bufferView":22,
			"componentType":5126,
			"count":32,
			"type":"VEC3"
		},
		{
			"bufferView":23,
			"componentType":5126,
			"count":32,
			"type":"VEC2"
		},
		{
			"bufferView":24,
			"componentType":5123,
			"count":42,
			"type":"SCALAR"
		},
		{
			"bufferView":25,
			"componentType":5126,
			"count":32,
			"max":[
				1.291253924369812,
				1,
				1.291253924369812
			],
			"min":[
				-1.291253924369812,
				-0.9999998807907104,
				-1.291253924369812
			],
			"type":"VEC3"
		},
		{
			"bufferView":26,
			"componentType":5126,
			"count":32,
			"type":"VEC3"
		},
		{
			"bufferView":27,
			"componentType":5126,
			"count":32,
			"type":"VEC2"
		},
		{
			"bufferView":28,
			"componentType":5126,
			"count":30,
			"max":[
				1.2916357517242432,
				0.014003393240272999,
				1.2098664045333862
			],
			"min":[
				0.6314672827720642,
				-4.76744546062946e-08,
				-17.175777435302734
			],
			"type":"VEC3"
		},
		{
			"bufferView":29,
			"componentType":5126,
			"count":30,
			"type":"VEC3"
		},
		{
			"bufferView":30,
			"componentType":5126,
			"count":30,
			"type":"VEC2"
		},
		{
			"bufferView":31,
			"componentType":5123,
			"count":48,
			"type":"SCALAR"
		},
		{
			"bufferView":32,
			"componentType":5126,
			"count":16,
			"max":[
				1.2916357517242432,
				0.014003393240272999,
				1.2098664045333862
			],
			"min":[
				0.9615515470504761,
				-3.484617039362092e-08,
				-0.7901335954666138
			],
			"type":"VEC3"
		},
		{
			"bufferView":33,
			"componentType":5126,
			"count":16,
			"type":"VEC3"
		},
		{
			"bufferView":34,
			"componentType":5126,
			"count":16,
			"type":"VEC2"
		},
		{
			"bufferView":35,
			"componentType":5123,
			"count":24,
			"type":"SCALAR"
		},
		{
			"bufferView":36,
			"componentType":5126,
			"count":32,
			"max":[
				1.291253924369812,
				1,
				1.291253924369812
			],
			"min":[
				-1.291253924369812,
				-0.9999998807907104,
				-1.291253924369812
			],
			"type":"VEC3"
		},
		{
			"bufferView":37,
			"componentType":5126,
			"count":32,
			"type":"VEC3"
		},
		{
			"bufferView":38,
			"componentType":5126,
			"count":32,
			"type":"VEC2"
		},
		{
			"bufferView":39,
			"componentType":5126,
			"count":32,
			"max":[
				1.291253924369812,
				1,
				1.291253924369812
			],
			"min":[
				-1.291253924369812,
				-0.9999998807907104,
				-1.291253924369812
			],
			"type":"VEC3"
		},
		{
			"bufferView":40,
			"componentType":5126,
			"count":32,
			"type":"VEC3"
		},
		{
			"bufferView":41,
			"componentType":5126,
			"count":32,
			"type":"VEC2"
		},
		{
			"bufferView":42,
			"componentType":5126,
			"count":32,
			"max":[
				1.291253924369812,
				1,
				1.291253924369812
			],
			"min":[
				-1.291253924369812,
				-0.9999998807907104,
				-1.291253924369812
			],
			"type":"VEC3"
		},
		{
			"bufferView":43,
			"componentType":5126,
			"count":32,
			"type":"VEC3"
		},
		{
			"bufferView":44,
			"componentType":5126,
			"count":32,
			"type":"VEC2"
		},
		{
			"bufferView":45,
			"componentType":5126,
			"count":114,
			"max":[
				0.9999991655349731,
				8.395984649658203,
				3.435202121734619
			],
			"min":[
				-0.7608789205551147,
				-2.1457672119140625e-06,
				-3.435202121734619
			],
			"type":"VEC3"
		},
		{
			"bufferView":46,
			"componentType":5126,
			"count":114,
			"type":"VEC3"
		},
		{
			"bufferView":47,
			"componentType":5126,
			"count":114,
			"type":"VEC2"
		},
		{
			"bufferView":48,
			"componentType":5123,
			"count":192,
			"type":"SCALAR"
		},
		{
			"bufferView":49,
			"componentType":5126,
			"count":9,
			"max":[
				0.7633919715881348,
				7.112865447998047,
				2.1958041191101074
			],
			"min":[
				0.7633919715881348,
				-2.1457672119140625e-06,
				-2.1958041191101074
			],
			"type":"VEC3"
		},
		{
			"bufferView":50,
			"componentType":5126,
			"count":9,
			"type":"VEC3"
		},
		{
			"bufferView":51,
			"componentType":5126,
			"count":9,
			"type":"VEC2"
		},
		{
			"bufferView":52,
			"componentType":5123,
			"count":21,
			"type":"SCALAR"
		},
		{
			"bufferView":53,
			"componentType":5126,
			"count":126,
			"max":[
				1,
				1.8892884254455566,
				-0.5492597818374634
			],
			"min":[
				-1,
				-0.49058014154434204,
				-1
			],
			"type":"VEC3"
		},
		{
			"bufferView":54,
			"componentType":5126,
			"count":126,
			"type":"VEC3"
		},
		{
			"bufferView":55,
			"componentType":5126,
			"count":126,
			"type":"VEC2"
		},
		{
			"bufferView":56,
			"componentType":5123,
			"count":216,
			"type":"SCALAR"
		},
		{
			"bufferView":57,
			"componentType":5126,
			"count":9,
			"max":[
				0.6603294610977173,
				1.5376355648040771,
				-0.9366632699966431
			],
			"min":[
				-0.6603294610977173,
				-0.15090960264205933,
				-0.9366632699966431
			],
			"type":"VEC3"
		},
		{
			"bufferView":58,
			"componentType":5126,
			"count":9,
			"type":"VEC3"
		},
		{
			"bufferView":59,
			"componentType":5126,
			"count":9,
			"type":"VEC2"
		},
		{
			"bufferView":60,
			"componentType":5123,
			"count":21,
			"type":"SCALAR"
		}
	],
	"bufferViews":[
		{
			"buffer":0,
			"byteLength":288,
			"byteOffset":0,
			"target":34962
		},
		{
			"buffer":0,
			"byteLength":288,
			"byteOffset":288,
			"target":34962
		},
		{
			"buffer":0,
			"byteLength":192,
			"byteOffset":576,
			"target":34962
		},
		{
			"buffer":0,
			"byteLength":72,
			"byteOffset":768,
			"target":34963
		},
		{
			"buffer":0,
			"byteLength":528,
			"byteOffset":840,
			"target":34962
		},
		{
			"buffer":0,
			"byteLength":528,
			"byteOffset":1368,
			"target":34962
		},
		{
			"buffer":0,
			"byteLength":352,
			"byteOffset":1896,
			"target":34962
		},
		{
			"buffer":0,
			"byteLength":156,
			"byteOffset":2248,
			"target":34963
		},
		{
			"buffer":0,
			"byteLength":240,
			"byteOffset":2404,
			"target":34962
		},
		{
			"buffer":0,
			"byteLength":240,
			"byteOffset":2644,
			"target":34962
		},
		{
			"buffer":0,
			"byteLength":160,
			"byteOffset":2884,
			"target":34962
		},
		{
			"buffer":0,
			"byteLength":60,
			"byteOffset":3044,
			"target":34963
		},
		{
			"buffer":0,
			"byteLength":240,
			"byteOffset":3104,
			"target":34962
		},
		{
			"buffer":0,
			"byteLength":240,
			"byteOffset":3344,
			"target":34962
		},
		{
			"buffer":0,
			"byteLength":160,
			"byteOffset":3584,
			"target":34962
		},
		{
			"buffer":0,
			"byteLength":240,
			"byteOffset":3744,
			"target":34962
		},
		{
			"buffer":0,
			"byteLength":240,
			"byteOffset":3984,
			"target":34962
		},
		{
			"buffer":0,
			"byteLength":160,
			"byteOffset":4224,
			"target":34962
		},
		{
			"buffer":0,
			"byteLength":240,
			"byteOffset":4384,
			"target":34962
		},
		{
			"buffer":0,
			"byteLength":240,
			"byteOffset":4624,
			"target":34962
		},
		{
			"buffer":0,
			"byteLength":160,
			"byteOffset":4864,
			"target":34962
		},
		{
			"buffer":0,
			"byteLength":384,
			"byteOffset":5024,
			"target":34962
		},
		{
			"buffer":0,
			"byteLength":384,
			"byteOffset":5408,
			"target":34962
		},
		{
			"buffer":0,
			"byteLength":256,
			"byteOffset":5792,
			"target":34962
		},
		{
			"buffer":0,
			"byteLength":84,
			"byteOffset":6048,
			"target":34963
		},
		{
			"buffer":0,
			"byteLength":384,
			"byteOffset":6132,
			"target":34962
		},
		{
			"buffer":0,
			"byteLength":384,
			"byteOffset":6516,
			"target":34962
		},
		{
			"buffer":0,
			"byteLength":256,
			"byteOffset":6900,
			"target":34962
		},
		{
			"buffer":0,
			"byteLength":360,
			"byteOffset":7156,
			"target":34962
		},
		{
			"buffer":0,
			"byteLength":360,
			"byteOffset":7516,
			"target":34962
		},
		{
			"buffer":0,
			"byteLength":240,
			"byteOffset":7876,
			"target":34962
		},
		{
			"buffer":0,
			"byteLength":96,
			"byteOffset":8116,
			"target":34963
		},
		{
			"buffer":0,
			"byteLength":192,
			"byteOffset":8212,
			"target":34962
		},
		{
			"buffer":0,
			"byteLength":192,
			"byteOffset":8404,
			"target":34962
		},
		{
			"buffer":0,
			"byteLength":128,
			"byteOffset":8596,
			"target":34962
		},
		{
			"buffer":0,
			"byteLength":48,
			"byteOffset":8724,
			"target":34963
		},
		{
			"buffer":0,
			"byteLength":384,
			"byteOffset":8772,
			"target":34962
		},
		{
			"buffer":0,
			"byteLength":384,
			"byteOffset":9156,
			"target":34962
		},
		{
			"buffer":0,
			"byteLength":256,
			"byteOffset":9540,
			"target":34962
		},
		{
			"buffer":0,
			"byteLength":384,
			"byteOffset":9796,
			"target":34962
		},
		{
			"buffer":0,
			"byteLength":384,
			"byteOffset":10180,
			"target":34962
		},
		{
			"buffer":0,
			"byteLength":256,
			"byteOffset":10564,
			"target":34962
		},
		{
			"buffer":0,
			"byteLength":384,
			"byteOffset":10820,
			"target":34962
		},
		{
			"buffer":0,
			"byteLength":384,
			"byteOffset":11204,
			"target":34962
		},
		{
			"buffer":0,
			"byteLength":256,
			"byteOffset":11588,
			"target":34962
		},
		{
			"buffer":0,
			"byteLength":1368,
			"byteOffset":11844,
			"target":34962
		},
		{
			"buffer":0,
			"byteLength":1368,
			"byteOffset":13212,
			"target":34962
		},
		{
			"buffer":0,
			"byteLength":912,
			"byteOffset":14580,
			"target":34962
		},
		{
			"buffer":0,
			"byteLength":384,
			"byteOffset":15492,
			"target":34963
		},
		{
			"buffer":0,
			"byteLength":108,
			"byteOffset":15876,
			"target":34962
		},
		{
			"buffer":0,
			"byteLength":108,
			"byteOffset":15984,
			"target":34962
		},
		{
			"buffer":0,
			"byteLength":72,
			"byteOffset":16092,
			"target":34962
		},
		{
			"buffer":0,
			"byteLength":42,
			"byteOffset":16164,
			"target":34963
		},
		{
			"buffer":0,
			"byteLength":1512,
			"byteOffset":16208,
			"target":34962
		},
		{
			"buffer":0,
			"byteLength":1512,
			"byteOffset":17720,
			"target":34962
		},
		{
			"buffer":0,
			"byteLength":1008,
			"byteOffset":19232,
			"target":34962
		},
		{
			"buffer":0,
			"byteLength":432,
			"byteOffset":20240,
			"target":34963
		},
		{
			"buffer":0,
			"byteLength":108,
			"byteOffset":20672,
			"target":34962
		},
		{
			"buffer":0,
			"byteLength":108,
			"byteOffset":20780,
			"target":34962
		},
		{
			"buffer":0,
			"byteLength":72,
			"byteOffset":20888,
			"target":34962
		},
		{
			"buffer":0,
			"byteLength":42,
			"byteOffset":20960,
			"target":34963
		}
	],
	"buffers":[
		{
			"byteLength":21004,
			"uri":"data:application/octet-stream;base64,"
		}
	]
}
