{
	"asset":{
		"generator":"Khronos glTF Blender I/O v3.6.27",
		"version":"2.0"
	},
	"scene":0,
	"scenes":[
		{
			"name":"Scene",
			"nodes":[
				0,
				1,
				2
			]
		}
	],
	"nodes":[
		{
			"mesh":0,
			"name":"Land"
		},
		{
			"mesh":1,
			"name":"Cube.016",
			"rotation":[
				0,
				-1,
				0,
				1.6292069915380125e-07
			],
			"scale":[
				0.3427368998527527,
				0.3427368998527527,
				0.3427368998527527
			],
			"translation":[
				-0.413444459438324,
				1.3427369594573975,
				-0.4463573694229126
			]
		},
		{
			"mesh":2,
			"name":"Cube.015",
			"rotation":[
				0,
				-1,
				0,
				1.6292068494294654e-07
			],
			"scale":[
				0.3720007538795471,
				0.3720007538795471,
				0.3720007538795471
			],
			"translation":[
				0.3579614758491516,
				1.372000813484192,
				0.43570977449417114
			]
		}
	],
	"materials":[
		{
			"doubleSided":true,
			"name":"Material.001",
			"pbrMetallicRoughness":{
				"baseColorFactor":[
					0,
					0.7991027235984802,
					0.004024943336844444,
					1
				],
				"metallicFactor":0,
				"roughnessFactor":0.5
			}
		},
		{
			"doubleSided":true,
			"name":"Material.009",
			"pbrMetallicRoughness":{
				"baseColorFactor":[
					0.8000000715255737,
					0.08020756393671036,
					0.09279319643974304,
					1
				],
				"metallicFactor":0,
				"roughnessFactor":0.5
			}
		},
		{
			"doubleSided":true,
			"name":"Material.014",
			"pbrMetallicRoughness":{
				"baseColorFactor":[
					0.7105505466461182,
					0.4927392303943634,
					0.3098872900009155,
					1
				],
				"metallicFactor":0,
				"roughnessFactor":0.5
			}
		},
		{
			"doubleSided":true,
			"name":"Material.015",
			"pbrMetallicRoughness":{
				"baseColorFactor":[
					0.5925732851028442,
					0.17945396900177002,
					0.039920542389154434,
					1
				],
				"metallicFactor":0,
				"roughnessFactor":0.5
			}
		},
		{
			"doubleSided":true,
			"name":"Material.004",
			"pbrMetallicRoughness":{
				"baseColorFactor":[
					0.30319780111312866,
					0.09502791613340378,
					0.02278321050107479,
					1
				],
				"metallicFactor":0,
				"roughnessFactor":0.5
			}
		},
		{
			"doubleSided":true,
			"name":"Material.011",
			"pbrMetallicRoughness":{
				"baseColorFactor":[
					0.09083760529756546,
					0.09083760529756546,
					0.09083760529756546,
					1
				],
				"metallicFactor":0,
				"roughnessFactor":0.5
			}
		}
	],
	"meshes":[
		{
			"name":"Cube.002",
			"primitives":[
				{
					"attributes":{
						"POSITION":0,
						"NORMAL":1,
						"TEXCOORD_0":2
					},
					"indices":3,
					"material":0
				}
			]
		},
		{
			"name":"Cube.043",
			"primitives":[
				{
					"attributes":{
						"POSITION":4,
						"NORMAL":5,
						"TEXCOORD_0":6
					},
					"indices":7,
					"material":1
				},
				{
					"attributes":{
						"POSITION":8,
						"NORMAL":9,
						"TEXCOORD_0":10
					},
					"indices":11,
					"material":2
				},
				{
					"attributes":{
						"POSITION":12,
						"NORMAL":13,
						"TEXCOORD_0":14
					},
					"indices":15,
					"material":3
				},
				{
					"attributes":{
						"POSITION":16,
						"NORMAL":17,
						"TEXCOORD_0":18
					},
					"indices":19,
					"material":4
				},
				{
					"attributes":{
						"POSITION":20,
						"NORMAL":21,
						"TEXCOORD_0":22
					},
					"indices":23,
					"material":5
				}
			]
		},
		{
			"name":"Cube.049",
			"primitives":[
				{
					"attributes":{
						"POSITION":24,
						"NORMAL":25,
						"TEXCOORD_0":26
					},
					"indices":27,
					"material":1
				},
				{
					"attributes":{
						"POSITION":28,
						"NORMAL":29,
						"TEXCOORD_0":30
					},
					"indices":11,
					"material":2
				},
				{
					"attributes":{
						"POSITION":31,
						"NORMAL":32,
						"TEXCOORD_0":33
					},
					"indices":15,
					"material":3
				},
				{
					"attributes":{
						"POSITION":34,
						"NORMAL":35,
						"TEXCOORD_0":36
					},
					"indices":19,
					"material":4
				},
				{
					"attributes":{
						"POSITION":37,
						"NORMAL":38,
						"TEXCOORD_0":39
					},
					"indices":23,
					"material":5
				}
			]
		}
	],
	"accessors":[
		{
			"bufferView":0,
			"componentType":5126,
			"count":24,
			"max":[
				1,
				1,
				1
			],
			"min":[
				-1,
				-1,
				-1
			],
			"type":"VEC3"
		},
		{
			"bufferView":1,
			"componentType":5126,
			"count":24,
			"type":"VEC3"
		},
		{
			"bufferView":2,
			"componentType":5126,
			"count":24,
			"type":"VEC2"
		},
		{
			"bufferView":3,
			"componentType":5123,
			"count":36,
			"type":"SCALAR"
		},
		{
			"bufferView":4,
			"componentType":5126,
			"count":198,
			"max":[
				1.3990944623947144,
				1.5138804912567139,
				1.112102746963501
			],
			"min":[
				-1.3990944623947144,
				-0.5178965926170349,
				-1.1207343339920044
			],
			"type":"VEC3"
		},
		{
			"bufferView":5,
			"componentType":5126,
			"count":198,
			"type":"VEC3"
		},
		{
			"bufferView":6,
			"componentType":5126,
			"count":198,
			"type":"VEC2"
		},
		{
			"bufferView":7,
			"componentType":5123,
			"count":336,
			"type":"SCALAR"
		},
		{
			"bufferView":8,
			"componentType":5126,
			"count":22,
			"max":[
				0.9999998807907104,
				1.3887293338775635,
				0.9664564728736877
			],
			"min":[
				-0.9999998807907104,
				-0.9999998807907104,
				-0.9664563536643982
			],
			"type":"VEC3"
		},
		{
			"bufferView":9,
			"componentType":5126,
			"count":22,
			"type":"VEC3"
		},
		{
			"bufferView":10,
			"componentType":5126,
			"count":22,
			"type":"VEC2"
		},
		{
			"bufferView":11,
			"componentType":5123,
			"count":36,
			"type":"SCALAR"
		},
		{
			"bufferView":12,
			"componentType":5126,
			"count":130,
			"max":[
				1.0330088138580322,
				0.6210894584655762,
				1.0459387302398682
			],
			"min":[
				-0.9950332641601562,
				-1.000000238418579,
				-1.0739948749542236
			],
			"type":"VEC3"
		},
		{
			"bufferView":13,
			"componentType":5126,
			"count":130,
			"type":"VEC3"
		},
		{
			"bufferView":14,
			"componentType":5126,
			"count":130,
			"type":"VEC2"
		},
		{
			"bufferView":15,
			"componentType":5123,
			"count":204,
			"type":"SCALAR"
		},
		{
			"bufferView":16,
			"componentType":5126,
			"count":5,
			"max":[
				0.15846693515777588,
				-0.32511746883392334,
				-0.9348563551902771
			],
			"min":[
				-0.15846624970436096,
				-0.9999996423721313,
				-0.9348563551902771
			],
			"type":"VEC3"
		},
		{
			"bufferView":17,
			"componentType":5126,
			"count":5,
			"type":"VEC3"
		},
		{
			"bufferView":18,
			"componentType":5126,
			"count":5,
			"type":"VEC2"
		},
		{
			"bufferView":19,
			"componentType":5123,
			"count":9,
			"type":"SCALAR"
		},
		{
			"bufferView":20,
			"componentType":5126,
			"count":9,
			"max":[
				0.17588865756988525,
				0.6535452008247375,
				-0.9847078323364258
			],
			"min":[
				-0.17588797211647034,
				0.276462197303772,
				-0.9847078323364258
			],
			"type":"VEC3"
		},
		{
			"bufferView":21,
			"componentType":5126,
			"count":9,
			"type":"VEC3"
		},
		{
			"bufferView":22,
			"componentType":5126,
			"count":9,
			"type":"VEC2"
		},
		{
			"bufferView":23,
			"componentType":5123,
			"count":21,
			"type":"SCALAR"
		},
		{
			"bufferView":24,
			"componentType":5126,
			"count":198,
			"max":[
				1.3990944623947144,
				1.5138804912567139,
				1.112102746963501
			],
			"min":[
				-1.3990944623947144,
				-0.5178965926170349,
				-1.1207343339920044
			],
			"type":"VEC3"
		},
		{
			"bufferView":25,
			"componentType":5126,
			"count":198,
			"type":"VEC3"
		},
		{
			"bufferView":26,
			"componentType":5126,
			"count":198,
			"type":"VEC2"
		},
		{
			"bufferView":27,
			"componentType":5123,
			"count":336,
			"type":"SCALAR"
		},
		{
			"bufferView":28,
			"componentType":5126,
			"count":22,
			"max":[
				0.9999998807907104,
				1.3887293338775635,
				0.9664564728736877
			],
			"min":[
				-0.9999998807907104,
				-0.9999998807907104,
				-0.9664563536643982
			],
			"type":"VEC3"
		},
		{
			"bufferView":29,
			"componentType":5126,
			"count":22,
			"type":"VEC3"
		},
		{
			"bufferView":30,
			"componentType":5126,
			"count":22,
			"type":"VEC2"
		},
		{
			"bufferView":31,
			"componentType":5126,
			"count":130,
			"max":[
				1.0330088138580322,
				0.6210894584655762,
				1.0459387302398682
			],
			"min":[
				-0.9950332641601562,
				-1.000000238418579,
				-1.0739948749542236
			],
			"type":"VEC3"
		},
		{
			"bufferView":32,
			"componentType":5126,
			"count":130,
			"type":"VEC3"
		},
		{
			"bufferView":33,
			"componentType":5126,
			"count":130,
			"type":"VEC2"
		},
		{
			"bufferView":34,
			"componentType":5126,
			"count":5,
			"max":[
				0.15846693515777588,
				-0.32511746883392334,
				-0.9348563551902771
			],
			"min":[
				-0.15846624970436096,
				-0.9999996423721313,
				-0.9348563551902771
			],
			"type":"VEC3"
		},
		{
			"bufferView":35,
			"componentType":5126,
			"count":5,
			"type":"VEC3"
		},
		{
			"bufferView":36,
			"componentType":5126,
			"count":5,
			"type":"VEC2"
		},
		{
			"bufferView":37,
			"componentType":5126,
			"count":9,
			"max":[
				0.17588865756988525,
				0.6535452008247375,
				-0.9847078323364258
			],
			"min":[
				-0.17588797211647034,
				0.276462197303772,
				-0.9847078323364258
			],
			"type":"VEC3"
		},
		{
			"bufferView":38,
			"componentType":5126,
			"count":9,
			"type":"VEC3"
		},
		{
			"bufferView":39,
			"componentType":5126,
			"count":9,
			"type":"VEC2"
		}
	],
	"bufferViews":[
		{
			"buffer":0,
			"byteLength":288,
			"byteOffset":0,
			"target":34962
		},
		{
			"buffer":0,
			"byteLength":288,
			"byteOffset":288,
			"target":34962
		},
		{
			"buffer":0,
			"byteLength":192,
			"byteOffset":576,
			"target":34962
		},
		{
			"buffer":0,
			"byteLength":72,
			"byteOffset":768,
			"target":34963
		},
		{
			"buffer":0,
			"byteLength":2376,
			"byteOffset":840,
			"target":34962
		},
		{
			"buffer":0,
			"byteLength":2376,
			"byteOffset":3216,
			"target":34962
		},
		{
			"buffer":0,
			"byteLength":1584,
			"byteOffset":5592,
			"target":34962
		},
		{
			"buffer":0,
			"byteLength":672,
			"byteOffset":7176,
			"target":34963
		},
		{
			"buffer":0,
			"byteLength":264,
			"byteOffset":7848,
			"target":34962
		},
		{
			"buffer":0,
			"byteLength":264,
			"byteOffset":8112,
			"target":34962
		},
		{
			"buffer":0,
			"byteLength":176,
			"byteOffset":8376,
			"target":34962
		},
		{
			"buffer":0,
			"byteLength":72,
			"byteOffset":8552,
			"target":34963
		},
		{
			"buffer":0,
			"byteLength":1560,
			"byteOffset":8624,
			"target":34962
		},
		{
			"buffer":0,
			"byteLength":1560,
			"byteOffset":10184,
			"target":34962
		},
		{
			"buffer":0,
			"byteLength":1040,
			"byteOffset":11744,
			"target":34962
		},
		{
			"buffer":0,
			"byteLength":408,
			"byteOffset":12784,
			"target":34963
		},
		{
			"buffer":0,
			"byteLength":60,
			"byteOffset":13192,
			"target":34962
		},
		{
			"buffer":0,
			"byteLength":60,
			"byteOffset":13252,
			"target":34962
		},
		{
			"buffer":0,
			"byteLength":40,
			"byteOffset":13312,
			"target":34962
		},
		{
			"buffer":0,
			"byteLength":18,
			"byteOffset":13352,
			"target":34963
		},
		{
			"buffer":0,
			"byteLength":108,
			"byteOffset":13372,
			"target":34962
		},
		{
			"buffer":0,
			"byteLength":108,
			"byteOffset":13480,
			"target":34962
		},
		{
			"buffer":0,
			"byteLength":72,
			"byteOffset":13588,
			"target":34962
		},
		{
			"buffer":0,
			"byteLength":42,
			"byteOffset":13660,
			"target":34963
		},
		{
			"buffer":0,
			"byteLength":2376,
			"byteOffset":13704,
			"target":34962
		},
		{
			"buffer":0,
			"byteLength":2376,
			"byteOffset":16080,
			"target":34962
		},
		{
			"buffer":0,
			"byteLength":1584,
			"byteOffset":18456,
			"target":34962
		},
		{
			"buffer":0,
			"byteLength":672,
			"byteOffset":20040,
			"target":34963
		},
		{
			"buffer":0,
			"byteLength":264,
			"byteOffset":20712,
			"target":34962
		},
		{
			"buffer":0,
			"byteLength":264,
			"byteOffset":20976,
			"target":34962
		},
		{
			"buffer":0,
			"byteLength":176,
			"byteOffset":21240,
			"target":34962
		},
		{
			"buffer":0,
			"byteLength":1560,
			"byteOffset":21416,
			"target":34962
		},
		{
			"buffer":0,
			"byteLength":1560,
			"byteOffset":22976,
			"target":34962
		},
		{
			"buffer":0,
			"byteLength":1040,
			"byteOffset":24536,
			"target":34962
		},
		{
			"buffer":0,
			"byteLength":60,
			"byteOffset":25576,
			"target":34962
		},
		{
			"buffer":0,
			"byteLength":60,
			"byteOffset":25636,
			"target":34962
		},
		{
			"buffer":0,
			"byteLength":40,
			"byteOffset":25696,
			"target":34962
		},
		{
			"buffer":0,
			"byteLength":108,
			"byteOffset":25736,
			"target":34962
		},
		{
			"buffer":0,
			"byteLength":108,
			"byteOffset":25844,
			"target":34962
		},
		{
			"buffer":0,
			"byteLength":72,
			"byteOffset":25952,
			"target":34962
		}
	],
	"buffers":[
		{
			"byteLength":26024,
			"uri":"data:application/octet-stream;base64,"
		}
	]
}
