{
	"asset":{
		"generator":"Khronos glTF Blender I/O v3.6.27",
		"version":"2.0"
	},
	"extensionsUsed":[
		"KHR_materials_specular",
		"KHR_materials_ior"
	],
	"scene":0,
	"scenes":[
		{
			"name":"Scene",
			"nodes":[
				0,
				1,
				2,
				3
			]
		}
	],
	"nodes":[
		{
			"mesh":0,
			"name":"Land"
		},
		{
			"mesh":1,
			"name":"Cube.018",
			"scale":[
				0.5397142171859741,
				0.5397142171859741,
				0.5397142171859741
			],
			"translation":[
				-0.03541082888841629,
				1.5397142171859741,
				0.0001352675026282668
			]
		},
		{
			"mesh":2,
			"name":"Cube.021",
			"scale":[
				0.0576256699860096,
				0.0576256699860096,
				0.0576256699860096
			],
			"translation":[
				0.13753947615623474,
				1.2662235498428345,
				0.0001352675026282668
			]
		},
		{
			"mesh":3,
			"name":"Plane.003",
			"rotation":[
				0.7071068286895752,
				0,
				0,
				0.7071067690849304
			],
			"scale":[
				0.1957673728466034,
				0.4129275977611542,
				0.4129275977611542
			],
			"translation":[
				-0.03541082888841629,
				1.6215256452560425,
				0.0001352675026282668
			]
		}
	],
	"materials":[
		{
			"doubleSided":true,
			"name":"Material.001",
			"pbrMetallicRoughness":{
				"baseColorFactor":[
					0,
					0.7991027235984802,
					0.004024943336844444,
					1
				],
				"metallicFactor":0,
				"roughnessFactor":0.5
			}
		},
		{
			"doubleSided":true,
			"name":"Material.007",
			"pbrMetallicRoughness":{
				"baseColorFactor":[
					0.800000011920929,
					0.800000011920929,
					0.800000011920929,
					1
				],
				"metallicFactor":0,
				"roughnessFactor":0.5
			}
		},
		{
			"doubleSided":true,
			"name":"Material.002",
			"pbrMetallicRoughness":{
				"baseColorFactor":[
					0.09584406018257141,
					0.6270593404769897,
					0.8000000715255737,
					1
				],
				"metallicFactor":0,
				"roughnessFactor":0.5
			}
		},
		{
			"alphaMode":"BLEND",
			"doubleSided":true,
			"extensions":{
				"KHR_materials_specular":{
					"specularColorFactor":[
						0,
						0,
						0
					]
				},
				"KHR_materials_ior":{
					"ior":1.4500000476837158
				}
			},
			"name":"Material.012",
			"pbrMetallicRoughness":{
				"baseColorFactor":[
					1,
					1,
					1,
					0.4094488024711609
				],
				"metallicFactor":0,
				"roughnessFactor":0.5
			}
		}
	],
	"meshes":[
		{
			"name":"Cube.002",
			"primitives":[
				{
					"attributes":{
						"POSITION":0,
						"NORMAL":1,
						"TEXCOORD_0":2
					},
					"indices":3,
					"material":0
				}
			]
		},
		{
			"name":"Cube.050",
			"primitives":[
				{
					"attributes":{
						"POSITION":4,
						"NORMAL":5,
						"TEXCOORD_0":6
					},
					"indices":7,
					"material":1
				}
			]
		},
		{
			"name":"Cube.053",
			"primitives":[
				{
					"attributes":{
						"POSITION":8,
						"NORMAL":9,
						"TEXCOORD_0":10
					},
					"indices":11,
					"material":2
				}
			]
		},
		{
			"name":"Plane.004",
			"primitives":[
				{
					"attributes":{
						"POSITION":12,
						"NORMAL":13,
						"TEXCOORD_0":14
					},
					"indices":15,
					"material":3
				}
			]
		}
	],
	"accessors":[
		{
			"bufferView":0,
			"componentType":5126,
			"count":24,
			"max":[
				1,
				1,
				1
			],
			"min":[
				-1,
				-1,
				-1
			],
			"type":"VEC3"
		},
		{
			"bufferView":1,
			"componentType":5126,
			"count":24,
			"type":"VEC3"
		},
		{
			"bufferView":2,
			"componentType":5126,
			"count":24,
			"type":"VEC2"
		},
		{
			"bufferView":3,
			"componentType":5123,
			"count":36,
			"type":"SCALAR"
		},
		{
			"bufferView":4,
			"componentType":5126,
			"count":48,
			"max":[
				1,
				-0.6135029196739197,
				1
			],
			"min":[
				-1,
				-1,
				-1
			],
			"type":"VEC3"
		},
		{
			"bufferView":5,
			"componentType":5126,
			"count":48,
			"type":"VEC3"
		},
		{
			"bufferView":6,
			"componentType":5126,
			"count":48,
			"type":"VEC2"
		},
		{
			"bufferView":7,
			"componentType":5123,
			"count":84,
			"type":"SCALAR"
		},
		{
			"bufferView":8,
			"componentType":5126,
			"count":228,
			"max":[
				1,
				11.928544998168945,
				1
			],
			"min":[
				-6.71375846862793,
				-1,
				-1
			],
			"type":"VEC3"
		},
		{
			"bufferView":9,
			"componentType":5126,
			"count":228,
			"type":"VEC3"
		},
		{
			"bufferView":10,
			"componentType":5126,
			"count":228,
			"type":"VEC2"
		},
		{
			"bufferView":11,
			"componentType":5123,
			"count":540,
			"type":"SCALAR"
		},
		{
			"bufferView":12,
			"componentType":5126,
			"count":32,
			"max":[
				0.7052795886993408,
				0.011889967136085033,
				1
			],
			"min":[
				-0.7052795886993408,
				2.6645352591003757e-15,
				-0.6070290207862854
			],
			"type":"VEC3"
		},
		{
			"bufferView":13,
			"componentType":5126,
			"count":32,
			"type":"VEC3"
		},
		{
			"bufferView":14,
			"componentType":5126,
			"count":32,
			"type":"VEC2"
		},
		{
			"bufferView":15,
			"componentType":5123,
			"count":60,
			"type":"SCALAR"
		}
	],
	"bufferViews":[
		{
			"buffer":0,
			"byteLength":288,
			"byteOffset":0,
			"target":34962
		},
		{
			"buffer":0,
			"byteLength":288,
			"byteOffset":288,
			"target":34962
		},
		{
			"buffer":0,
			"byteLength":192,
			"byteOffset":576,
			"target":34962
		},
		{
			"buffer":0,
			"byteLength":72,
			"byteOffset":768,
			"target":34963
		},
		{
			"buffer":0,
			"byteLength":576,
			"byteOffset":840,
			"target":34962
		},
		{
			"buffer":0,
			"byteLength":576,
			"byteOffset":1416,
			"target":34962
		},
		{
			"buffer":0,
			"byteLength":384,
			"byteOffset":1992,
			"target":34962
		},
		{
			"buffer":0,
			"byteLength":168,
			"byteOffset":2376,
			"target":34963
		},
		{
			"buffer":0,
			"byteLength":2736,
			"byteOffset":2544,
			"target":34962
		},
		{
			"buffer":0,
			"byteLength":2736,
			"byteOffset":5280,
			"target":34962
		},
		{
			"buffer":0,
			"byteLength":1824,
			"byteOffset":8016,
			"target":34962
		},
		{
			"buffer":0,
			"byteLength":1080,
			"byteOffset":9840,
			"target":34963
		},
		{
			"buffer":0,
			"byteLength":384,
			"byteOffset":10920,
			"target":34962
		},
		{
			"buffer":0,
			"byteLength":384,
			"byteOffset":11304,
			"target":34962
		},
		{
			"buffer":0,
			"byteLength":256,
			"byteOffset":11688,
			"target":34962
		},
		{
			"buffer":0,
			"byteLength":120,
			"byteOffset":11944,
			"target":34963
		}
	],
	"buffers":[
		{
			"byteLength":12064,
			"uri":"data:application/octet-stream;base64,"
		}
	]
}
