{
	"asset":{
		"generator":"Khronos glTF Blender I/O v3.6.27",
		"version":"2.0"
	},
	"scene":0,
	"scenes":[
		{
			"name":"Scene",
			"nodes":[
				0
			]
		}
	],
	"nodes":[
		{
			"mesh":0,
			"name":"Cone.002",
			"scale":[
				0.3184777796268463,
				0.3184777796268463,
				0.3184777796268463
			],
			"translation":[
				-0.5753819346427917,
				1.8500990867614746,
				-0.09990821778774261
			]
		}
	],
	"materials":[
		{
			"doubleSided":true,
			"name":"Material.003",
			"pbrMetallicRoughness":{
				"baseColorFactor":[
					0.0321921780705452,
					0.8000000715255737,
					0.11040443181991577,
					1
				],
				"metallicFactor":0,
				"roughnessFactor":0.5
			}
		},
		{
			"doubleSided":true,
			"name":"Material.004",
			"pbrMetallicRoughness":{
				"baseColorFactor":[
					0.30319780111312866,
					0.09502791613340378,
					0.02278321050107479,
					1
				],
				"metallicFactor":0,
				"roughnessFactor":0.5
			}
		},
		{
			"doubleSided":true,
			"name":"Material.001",
			"pbrMetallicRoughness":{
				"baseColorFactor":[
					0,
					0.8000000715255737,
					0.00407012365758419,
					1
				],
				"metallicFactor":0,
				"roughnessFactor":0.5
			}
		}
	],
	"meshes":[
		{
			"name":"Cone.004",
			"primitives":[
				{
					"attributes":{
						"POSITION":0,
						"NORMAL":1,
						"TEXCOORD_0":2
					},
					"indices":3,
					"material":0
				},
				{
					"attributes":{
						"POSITION":4,
						"NORMAL":5,
						"TEXCOORD_0":6
					},
					"indices":7,
					"material":1
				},
				{
					"attributes":{
						"POSITION":8,
						"NORMAL":9,
						"TEXCOORD_0":10
					},
					"indices":11,
					"material":2
				}
			]
		}
	],
	"accessors":[
		{
			"bufferView":0,
			"componentType":5126,
			"count":192,
			"max":[
				4.029976844787598,
				1,
				2.8299365043640137
			],
			"min":[
				-1.0000001192092896,
				-1.7682567834854126,
				-2.1536269187927246
			],
			"type":"VEC3"
		},
		{
			"bufferView":1,
			"componentType":5126,
			"count":192,
			"type":"VEC3"
		},
		{
			"bufferView":2,
			"componentType":5126,
			"count":192,
			"type":"VEC2"
		},
		{
			"bufferView":3,
			"componentType":5123,
			"count":252,
			"type":"SCALAR"
		},
		{
			"bufferView":4,
			"componentType":5126,
			"count":72,
			"max":[
				3.1657297611236572,
				-0.5915089845657349,
				1.9656891822814941
			],
			"min":[
				-0.1357528567314148,
				-2.669257402420044,
				-1.289379596710205
			],
			"type":"VEC3"
		},
		{
			"bufferView":5,
			"componentType":5126,
			"count":72,
			"type":"VEC3"
		},
		{
			"bufferView":6,
			"componentType":5126,
			"count":72,
			"type":"VEC2"
		},
		{
			"bufferView":7,
			"componentType":5123,
			"count":108,
			"type":"SCALAR"
		},
		{
			"bufferView":8,
			"componentType":5126,
			"count":24,
			"max":[
				4.946599006652832,
				-2.669257164001465,
				3.453641891479492
			],
			"min":[
				-1.3332737684249878,
				-8.949130058288574,
				-2.826231002807617
			],
			"type":"VEC3"
		},
		{
			"bufferView":9,
			"componentType":5126,
			"count":24,
			"type":"VEC3"
		},
		{
			"bufferView":10,
			"componentType":5126,
			"count":24,
			"type":"VEC2"
		},
		{
			"bufferView":11,
			"componentType":5123,
			"count":36,
			"type":"SCALAR"
		}
	],
	"bufferViews":[
		{
			"buffer":0,
			"byteLength":2304,
			"byteOffset":0,
			"target":34962
		},
		{
			"buffer":0,
			"byteLength":2304,
			"byteOffset":2304,
			"target":34962
		},
		{
			"buffer":0,
			"byteLength":1536,
			"byteOffset":4608,
			"target":34962
		},
		{
			"buffer":0,
			"byteLength":504,
			"byteOffset":6144,
			"target":34963
		},
		{
			"buffer":0,
			"byteLength":864,
			"byteOffset":6648,
			"target":34962
		},
		{
			"buffer":0,
			"byteLength":864,
			"byteOffset":7512,
			"target":34962
		},
		{
			"buffer":0,
			"byteLength":576,
			"byteOffset":8376,
			"target":34962
		},
		{
			"buffer":0,
			"byteLength":216,
			"byteOffset":8952,
			"target":34963
		},
		{
			"buffer":0,
			"byteLength":288,
			"byteOffset":9168,
			"target":34962
		},
		{
			"buffer":0,
			"byteLength":288,
			"byteOffset":9456,
			"target":34962
		},
		{
			"buffer":0,
			"byteLength":192,
			"byteOffset":9744,
			"target":34962
		},
		{
			"buffer":0,
			"byteLength":72,
			"byteOffset":9936,
			"target":34963
		}
	],
	"buffers":[
		{
			"byteLength":10008,
			"uri":"data:application/octet-stream;base64,"
		}
	]
}
